<svg id="Capa_1" data-name="Capa 1" xmlns="http://www.w3.org/2000/svg" viewBox="0 0 512 512"><defs><style>.cls-1{fill:#82bf73;}.cls-2{fill:#557a4b;}.cls-3{fill:#7acbff;}.cls-4{fill:#4eb9ff;}.cls-5{fill:#45a2e0;}.cls-6{fill:#2f73a0;}.cls-7{fill:#ff9356;}.cls-8{fill:#ffb14e;}.cls-9{fill:#ffce47;}.cls-10{fill:#ffe290;}.cls-11{fill:#5b3256;}.cls-12{fill:#843561;}.cls-13{fill:#092a40;}.cls-14{fill:#3a2f4d;}</style></defs><title>1webdesign</title><circle class="cls-1" cx="256" cy="256" r="256"/><path class="cls-2" d="M512,256c0-1.48,0-3-.06-4.43L386.13,125.75,117.53,394.46l116.6,116.6c7.21.61,14.5.94,21.87.94C397.39,512,512,397.38,512,256Z" transform="translate(0 0)"/><polygon class="cls-3" points="255.53 256.35 226.84 285.05 117.39 175.6 128.87 164.12 255.53 256.35"/><polygon class="cls-4" points="255.53 256.35 226.84 285.05 336.29 394.49 347.76 383.01 255.53 256.35"/><polygon class="cls-4" points="239.33 181.22 222.11 186.96 227.85 169.74 207.44 149.33 190.22 155.07 195.96 137.85 175.55 117.44 128.87 164.12 238.32 273.57 285 226.89 239.33 181.22"/><polygon class="cls-5" points="330.66 272.55 324.92 289.77 342.14 284.03 362.56 304.44 356.81 321.66 374.03 315.92 394.45 336.33 347.76 383.01 238.32 273.57 285 226.89 330.66 272.55"/><rect class="cls-5" x="167.06" y="149.82" width="40.58" height="16.23" transform="translate(-56.81 178.74) rotate(-45)"/><rect class="cls-5" x="198.95" y="181.71" width="40.58" height="16.23" transform="translate(-70.01 210.63) rotate(-45)"/><rect class="cls-6" x="333.66" y="316.41" width="40.58" height="16.23" transform="translate(-125.81 345.33) rotate(-45)"/><rect class="cls-6" x="301.77" y="284.52" width="40.58" height="16.23" transform="translate(-112.6 313.44) rotate(-45)"/><polygon class="cls-7" points="117.53 394.46 197.38 372.68 214.69 343.47 203.03 285.89 117.53 394.46"/><polygon class="cls-8" points="214.51 297.37 168.42 297.2 139.2 314.51 117.53 394.46 214.51 297.37"/><polygon class="cls-9" points="191.55 320.33 214.69 343.47 243.25 326.11 214.51 274.42 191.55 320.33"/><polygon class="cls-10" points="185.77 268.64 168.42 297.2 191.55 320.33 225.99 285.89 185.77 268.64"/><polygon class="cls-11" points="267.4 221.53 214.51 297.37 243.25 326.11 282.3 282.35 267.4 221.53"/><polygon class="cls-12" points="229.53 229.58 185.77 268.64 214.51 297.37 278.88 233.01 229.53 229.58"/><path class="cls-13" d="M282.3,282.35l104.94-117.6a28.43,28.43,0,0,0-1.11-39l-80.41,49.8L255.92,256Z" transform="translate(0 0)"/><path class="cls-14" d="M386.13,125.75a28.41,28.41,0,0,0-39-1.11L229.54,229.58,255.92,256Z" transform="translate(0 0)"/></svg>