<svg id="Capa_1" enable-background="new 0 0 494.632 494.632" height="512" viewBox="0 0 494.632 494.632" width="512" xmlns="http://www.w3.org/2000/svg"><path d="m350.146 254.669-88.65-119.73c-1.147-1.551-2.444-2.864-3.842-3.948l-64.316 80.494-34.936 60.913 45.591 53.583 23.031 42.737h48.691l30.99-37.11 42.37-48.35c6.841-7.819 7.311-20.159 1.071-28.589z" fill="#f9f7f8"/><g><path d="m238.885 58.515h-214.022c-4.142 0-7.5-3.358-7.5-7.5s3.358-7.5 7.5-7.5h214.022c4.142 0 7.5 3.358 7.5 7.5s-3.358 7.5-7.5 7.5z" fill="#d7d0d6"/></g><g><path d="m468.77 58.515h-212.023c-4.142 0-7.5-3.358-7.5-7.5s3.358-7.5 7.5-7.5h212.023c4.142 0 7.5 3.358 7.5 7.5s-3.358 7.5-7.5 7.5z" fill="#d7d0d6"/></g><path d="m182.686 345.089v53.72l2.059 59.439c.112 3.236 2.768 5.801 6.006 5.801h33.315l4.835-2.927 2.156-20.64h29.882l1.54 17.868 7.086 5.699h34.315c3.238 0 5.893-2.565 6.006-5.801l2.059-59.439v-53.72z" fill="#c9bfc8"/><path d="m175.266 283.259c-6.84-7.82-7.31-20.16-1.07-28.59l87.975-118.818-.675-.912c-7.62-10.3-21.74-10.3-29.36 0l-88.65 119.73c-6.24 8.43-5.77 20.77 1.07 28.59l42.37 48.35 31.7 37.11h30.71l-31.7-37.11z" fill="#efedef"/><path d="m201.251 345.089h-18.565v53.72l2.059 59.439c.112 3.236 2.768 5.801 6.006 5.801h18.32l-.806-23.261c-.426-12.284 9.417-22.473 21.708-22.473h80.976c.127-.123.205-.198.332-.321l.665-19.185v-45.125-8.595z" fill="#baafb9"/><path d="m310.949 331.606h-92.697l-15.281 2.076-18.577 6.442-1.798 23.97 1.348 31.76s15.43.899 15.73 1.348 15.946 3.252 15.946 3.252l.3.861h95.028c9.369 0 16.964-7.595 16.964-16.964v-35.78c.002-9.37-7.593-16.965-16.963-16.965z" fill="#c9bfc8"/><path d="m203.994 384.35v-35.78c0-9.369 7.595-16.964 16.964-16.964h-38.275c-9.369 0-16.964 7.595-16.964 16.964v35.78c0 9.369 7.595 16.964 16.964 16.964h38.275c-9.369.001-16.964-7.594-16.964-16.964z" fill="#baafb9"/><path d="m263.676 220.749v-82.87l-2.18-2.94c-1.391-1.881-3.001-3.414-4.747-4.608l-25.793 35.196v54.582c-8.9 5.38-14.85 15.15-14.85 26.31 0 16.96 13.75 30.7 30.71 30.7s30.71-13.74 30.71-30.7c0-10.74-5.51-20.18-13.85-25.67z" fill="#efedef"/><g id="XMLID_120_"><g><path d="m269.566 446.619v17.43h-45.5v-17.43c0-7 5.68-12.68 12.68-12.68h20.14c7 0 12.68 5.68 12.68 12.68z" fill="#baafb9"/></g></g><g><path d="m404.713 215.912c-4.142 0-7.5-3.358-7.5-7.5 0-75.1-56.073-139.002-130.43-148.641-4.107-.533-7.006-4.294-6.474-8.402.533-4.107 4.286-7.009 8.402-6.474 81.809 10.605 143.501 80.902 143.501 163.517.001 4.142-3.357 7.5-7.499 7.5z" fill="#c9bfc8"/></g><g><path d="m89.919 215.912c-4.142 0-7.5-3.358-7.5-7.5 0-82.615 61.692-152.912 143.501-163.517 4.115-.529 7.87 2.366 8.402 6.474s-2.366 7.87-6.474 8.402c-74.357 9.639-130.43 73.541-130.43 148.641.001 4.142-3.357 7.5-7.499 7.5z" fill="#c9bfc8"/></g><g fill="#fedf30"><circle cx="404.713" cy="231.123" r="22.413"/><circle cx="89.919" cy="231.123" r="22.413"/><path d="m259.367 71.446h-24.102c-4.628 0-8.38-3.752-8.38-8.38v-24.102c0-4.628 3.752-8.38 8.38-8.38h24.102c4.628 0 8.38 3.752 8.38 8.38v24.102c0 4.628-3.752 8.38-8.38 8.38z"/></g><path d="m486.252 71.446h-24.102c-4.628 0-8.38-3.752-8.38-8.38v-24.102c0-4.628 3.752-8.38 8.38-8.38h24.102c4.628 0 8.38 3.752 8.38 8.38v24.102c0 4.628-3.752 8.38-8.38 8.38z" fill="#f47c7c"/><path d="m8.38 71.446h24.102c4.628 0 8.38-3.752 8.38-8.38v-24.102c0-4.628-3.752-8.38-8.38-8.38h-24.102c-4.628 0-8.38 3.752-8.38 8.38v24.102c0 4.628 3.752 8.38 8.38 8.38z" fill="#f47c7c"/><path d="m230.956 136.529v41.48l31.215-42.159v-.001l-.675-.911c-7.62-10.3-21.74-10.3-29.36 0z" fill="#e5e1e5"/></svg>