<svg xmlns="http://www.w3.org/2000/svg" xmlns:xlink="http://www.w3.org/1999/xlink" viewBox="0 0 1175.64 579.62"><defs><linearGradient id="a" y1="289.81" x2="1175.64" y2="289.81" gradientUnits="userSpaceOnUse"><stop offset="0.54" stop-color="#e5c500"/><stop offset="0.55" stop-color="#e59e03"/><stop offset="0.74" stop-color="#ff7300"/><stop offset="0.8" stop-color="#f67200"/><stop offset="0.9" stop-color="#dc7100"/><stop offset="0.99" stop-color="#bf6f00"/></linearGradient><radialGradient id="b" cx="575.32" cy="302.48" r="347.13" gradientUnits="userSpaceOnUse"><stop offset="0.27" stop-color="#fe7500"/><stop offset="0.32" stop-color="#ff7300"/><stop offset="0.4" stop-color="#f97c01"/><stop offset="0.52" stop-color="#ea9602"/><stop offset="0.55" stop-color="#e59e03"/><stop offset="0.87" stop-color="#e5c500"/><stop offset="0.99" stop-color="#bf6f00"/></radialGradient></defs><title>logo实验2</title><rect x="2.5" y="2.5" width="1170.64" height="574.62" rx="2.83" ry="2.83" style="fill:none;stroke-miterlimit:10;stroke-width:5px;stroke:url(#a)"/><text transform="translate(156.42 250.62)" style="font-size:122.69377899169922px;fill:none;stroke:#000;stroke-miterlimit:10;font-family:Futura-Bold, Futura;font-weight:700">LZ <tspan x="194.59" y="0" style="letter-spacing:-0.035992172229846825em">W</tspan><tspan x="330.78" y="0" style="letter-spacing:-0.00000795934812690111em">o</tspan><tspan x="416.67" y="0" style="letter-spacing:0.0009949185158626389em">r</tspan><tspan x="473.84" y="0" style="letter-spacing:0.014000493355219053em">k</tspan><tspan x="561.2" y="0">shop</tspan></text><line x1="84.42" y1="302.48" x2="1066.23" y2="302.48" style="fill:none;stroke-miterlimit:10;stroke-width:4px;stroke:url(#b)"/><path d="M349.21,654a16.81,16.81,0,0,1-2.63,9.4,20.3,20.3,0,0,1-6.83,6.52,30.32,30.32,0,0,1-8.13,3.29,41.6,41.6,0,0,1-10.09,1.12c-1.42,0-2.81,0-4.16-.06l-2.26-.06q0-.15.08-7t.08-13q0-3.25,0-8.37t-.14-12.43l2.79,0,2.66,0a50.06,50.06,0,0,1,11.18,1.13,27.76,27.76,0,0,1,8.71,3.56,17.77,17.77,0,0,1,8.76,16ZM344,654a15.12,15.12,0,0,0-1.71-7.19,14.64,14.64,0,0,0-5.38-5.54,22.77,22.77,0,0,0-7.61-3,39,39,0,0,0-7.59-.85h-1.58q-.06,4.82-.08,8c0,2.11,0,3.79,0,5,0,.9,0,3,0,6.26s0,7.82.05,13.62h1.55a35.3,35.3,0,0,0,7.93-.92,23.28,23.28,0,0,0,6.73-2.58,17,17,0,0,0,5.57-5.25A13.34,13.34,0,0,0,344,654Z" transform="translate(-60.19 -261.38)" style="fill:none;stroke:#000;stroke-miterlimit:10"/><path d="M382.92,657.61h-22a13.45,13.45,0,0,0,1.37,5.92,11.24,11.24,0,0,0,4.11,4.46,13.71,13.71,0,0,0,4,1.69,22.46,22.46,0,0,0,5.42.56q1.74,0,3.18-.09l1.79-.12-.55,4.05c-.17,0-.7.06-1.62.11s-2,.07-3.22.07a25.71,25.71,0,0,1-8.48-1.26,15.19,15.19,0,0,1-9.29-8.24,14.73,14.73,0,0,1-1.38-6.42,18,18,0,0,1,1-6.27,16.92,16.92,0,0,1,3.11-5.21,11.87,11.87,0,0,1,4.46-3.19,14.62,14.62,0,0,1,10.55-.28,10.1,10.1,0,0,1,3.8,2.59,13,13,0,0,1,2.74,4.79A22.38,22.38,0,0,1,382.92,657.61Zm-4.72-3.41a10.1,10.1,0,0,0-2.58-5.92,7.31,7.31,0,0,0-5.49-2.15,7.93,7.93,0,0,0-5.69,2.18,11.55,11.55,0,0,0-3.17,5.89Z" transform="translate(-60.19 -261.38)" style="fill:none;stroke:#000;stroke-miterlimit:10"/><path d="M407.73,665.22a7.49,7.49,0,0,1-1.1,4,8.78,8.78,0,0,1-2.86,2.86,14.52,14.52,0,0,1-4.41,1.75,24.55,24.55,0,0,1-5.63.6c-1,0-2-.05-3.09-.14l-1.82-.17-.18-4,2.12.17c1.22.09,2.45.14,3.67.14a24.51,24.51,0,0,0,2.74-.19,9.22,9.22,0,0,0,2.77-.67,5.48,5.48,0,0,0,2.25-1.64,3.77,3.77,0,0,0,.73-2.34,3.07,3.07,0,0,0-.64-2,7.83,7.83,0,0,0-1.77-1.51,22.39,22.39,0,0,0-3.33-1.75,33.3,33.3,0,0,1-3.55-1.78,9.35,9.35,0,0,1-3.12-2.95,7.26,7.26,0,0,1-1.08-4,7,7,0,0,1,1.24-4A9,9,0,0,1,394,644.7a11.79,11.79,0,0,1,4-1.29,28.12,28.12,0,0,1,4.22-.32c1.24,0,2.26,0,3.05.06l1.37.06.34,4-1.88-.12c-1.11-.09-2.32-.13-3.65-.13a13.59,13.59,0,0,0-2.67.25,7.76,7.76,0,0,0-2.15.7,4.38,4.38,0,0,0-1.87,1.61,3.54,3.54,0,0,0-.57,1.83,3.08,3.08,0,0,0,.79,2.1,7.4,7.4,0,0,0,1.87,1.49c.83.49,2,1.07,3.41,1.74a30.52,30.52,0,0,1,3.15,1.61,10.87,10.87,0,0,1,3.25,3A6.82,6.82,0,0,1,407.73,665.22Z" transform="translate(-60.19 -261.38)" style="fill:none;stroke:#000;stroke-miterlimit:10"/><path d="M421.73,637.42h-5.35v-5.23h5.35Zm-.27,36.72h-4.81q0-.48.08-6c0-3.67,0-6.71,0-9.1q0-3.13,0-6.9t-.11-8.81h4.81q-.06,4.38-.11,8.21t0,6.8c0,4.73,0,8.52.07,11.39S421.46,674.06,421.46,674.14Z" transform="translate(-60.19 -261.38)" style="fill:none;stroke:#000;stroke-miterlimit:10"/><path d="M456.2,643.06q0,.66-.05,6t0,10.2q0,3.3,0,6.7t0,6.24a15.88,15.88,0,0,1-1.78,8.16,12.93,12.93,0,0,1-5.07,4.72,25.11,25.11,0,0,1-6.3,2.12,45.45,45.45,0,0,1-9,.77l-.48-3.86q3.56-.06,6.39-.38a22.36,22.36,0,0,0,5.15-1.18,9.65,9.65,0,0,0,5-3.54,10.26,10.26,0,0,0,1.46-5.38H450a34.25,34.25,0,0,1-7.46-.86A18.48,18.48,0,0,1,436,670a13.4,13.4,0,0,1-6-11.84,12.56,12.56,0,0,1,2.34-7.52,16.44,16.44,0,0,1,6.27-5.18,21.58,21.58,0,0,1,6.11-1.9,50.51,50.51,0,0,1,8-.53h3.5Zm-4.66,16.18c0-1.46,0-3.29,0-5.48s0-4.47-.08-6.84h-.79a28.72,28.72,0,0,0-5,.37,19.8,19.8,0,0,0-4.46,1.37,10.22,10.22,0,0,0-4.75,3.92,10.61,10.61,0,0,0-1.64,5.84,9.8,9.8,0,0,0,1.63,5.71,10.83,10.83,0,0,0,4.36,3.68,20.17,20.17,0,0,0,4.31,1.43,24.15,24.15,0,0,0,5.19.55h1.13q0-.37,0-3.39T451.54,659.24Z" transform="translate(-60.19 -261.38)" style="fill:none;stroke:#000;stroke-miterlimit:10"/><path d="M492.52,674.14h-4.81c0-.57.05-2.44.08-5.63s0-5.16,0-5.91c0-1.05,0-2.61,0-4.67s0-3.57-.05-4.52c-.06-2.34-.51-4-1.34-5s-2.27-1.52-4.32-1.52a13,13,0,0,0-4.6,1.1,37,37,0,0,0-5.54,2.8c0,.22,0,1.43,0,3.62s0,4.19,0,6c0,2.35,0,5.2.07,8.52s.08,5.08.08,5.24h-4.81c0-.14,0-1.39.06-3.73s.06-5.83.06-10.46c0-2.13,0-4.62,0-7.49s-.05-5.9-.11-9.13H472l0,3.5,0,.06a42.54,42.54,0,0,1,7.11-3.39,15.42,15.42,0,0,1,4.73-1A8.3,8.3,0,0,1,490.1,645a9.28,9.28,0,0,1,2.36,6.71q0,3.84,0,6.62c0,1.86,0,3.37,0,4.53q0,2.76.07,6.92C492.49,672.54,492.52,674,492.52,674.14Z" transform="translate(-60.19 -261.38)" style="fill:none;stroke:#000;stroke-miterlimit:10"/><path d="M536.7,633.4h-1.53a15.66,15.66,0,0,0-4.5.52,7.51,7.51,0,0,0-3,1.76,5.92,5.92,0,0,0-1.53,2.6,11.8,11.8,0,0,0-.54,3.68v1.37H536v3.56H525.64q0,9.87.05,18.32t0,8.93h-4.82q0-.48.07-8.57t.06-18.68h-6v-3.56h6v-1.49a15,15,0,0,1,.7-4.78,10.61,10.61,0,0,1,2.46-4,11.48,11.48,0,0,1,4-2.58,16.91,16.91,0,0,1,6.21-1h1.65Z" transform="translate(-60.19 -261.38)" style="fill:none;stroke:#000;stroke-miterlimit:10"/><path d="M569,658.74a18.38,18.38,0,0,1-1.26,6.75,15.29,15.29,0,0,1-3.64,5.51,14.31,14.31,0,0,1-4.46,2.93,14.58,14.58,0,0,1-5.56,1,15.06,15.06,0,0,1-5.48-1,13.93,13.93,0,0,1-4.57-2.9,15,15,0,0,1-3.57-5.49,18.68,18.68,0,0,1-1.27-6.88,18.46,18.46,0,0,1,1.08-6.43,15,15,0,0,1,3.37-5.29,14,14,0,0,1,4.75-3.27,14.57,14.57,0,0,1,5.72-1.14,15,15,0,0,1,5.74,1.05,13.24,13.24,0,0,1,4.58,3.15,15.67,15.67,0,0,1,3.44,5.4A18.66,18.66,0,0,1,569,658.74Zm-4.87.21a17,17,0,0,0-.93-5.57,11.22,11.22,0,0,0-2.88-4.57,8.26,8.26,0,0,0-2.81-1.78,9.35,9.35,0,0,0-3.4-.62,9.08,9.08,0,0,0-3.65.67,8.74,8.74,0,0,0-2.92,2.1,11.37,11.37,0,0,0-2.55,4.2,15.35,15.35,0,0,0-.93,5.29,16.56,16.56,0,0,0,.95,5.71,10.91,10.91,0,0,0,3,4.49,8.24,8.24,0,0,0,2.74,1.63,9.48,9.48,0,0,0,3.29.57,9.62,9.62,0,0,0,3.58-.67,8.66,8.66,0,0,0,2.91-1.95,11.71,11.71,0,0,0,2.64-4.27A15,15,0,0,0,564.16,659Z" transform="translate(-60.19 -261.38)" style="fill:none;stroke:#000;stroke-miterlimit:10"/><path d="M595.24,646.92a50.16,50.16,0,0,0-5.13,1.68c-2.3.85-5,2-8,3.41q0,.33,0,3.06t0,5.07q0,3.58.08,8.52c.05,3.29.07,5.12.07,5.48h-4.81c0-.34,0-1.48.06-3.41s.06-5.23.06-9.89q0-2.83,0-7.92t-.09-9.59h4.72V648l0,0a66.94,66.94,0,0,1,6.79-3.38,41,41,0,0,1,5.36-2Z" transform="translate(-60.19 -261.38)" style="fill:none;stroke:#000;stroke-miterlimit:10"/><path d="M643.07,644.58q-5.94,13.09-12.5,27.81l-7,15.66-4.21-1.55,6.29-13.06q-.24-.62-3.81-8.89t-8.72-19.79l4.56-2q3.34,8.46,6.81,16.73l3.66,8.69h.06q.18-.3,3.47-8.09t7.18-17.21Z" transform="translate(-60.19 -261.38)" style="fill:none;stroke:#000;stroke-miterlimit:10"/><path d="M677.45,658.74a18.39,18.39,0,0,1-1.27,6.75,15,15,0,0,1-3.64,5.51,14.2,14.2,0,0,1-4.46,2.93,14.49,14.49,0,0,1-5.55,1,15,15,0,0,1-5.48-1,13.82,13.82,0,0,1-4.57-2.9,15,15,0,0,1-3.58-5.49,18.88,18.88,0,0,1-1.26-6.88,18.46,18.46,0,0,1,1.08-6.43,15,15,0,0,1,3.36-5.29,14.13,14.13,0,0,1,4.75-3.27,14.65,14.65,0,0,1,5.73-1.14,15.09,15.09,0,0,1,5.74,1.05,13.24,13.24,0,0,1,4.58,3.15,15.67,15.67,0,0,1,3.44,5.4A18.66,18.66,0,0,1,677.45,658.74Zm-4.88.21a17.26,17.26,0,0,0-.92-5.57,11.22,11.22,0,0,0-2.88-4.57A8.21,8.21,0,0,0,666,647a9.3,9.3,0,0,0-3.39-.62,9.16,9.16,0,0,0-3.66.67,8.84,8.84,0,0,0-2.92,2.1,11.49,11.49,0,0,0-2.54,4.2,15.35,15.35,0,0,0-.93,5.29,16.8,16.8,0,0,0,.94,5.71,10.94,10.94,0,0,0,3,4.49,8.14,8.14,0,0,0,2.74,1.63,9.81,9.81,0,0,0,6.86-.1,8.47,8.47,0,0,0,2.91-1.95,11.73,11.73,0,0,0,2.65-4.27A15,15,0,0,0,672.57,659Z" transform="translate(-60.19 -261.38)" style="fill:none;stroke:#000;stroke-miterlimit:10"/><path d="M710.93,674.14h-4.65v-3.53l0,0a43.27,43.27,0,0,1-5.32,2.88,14.81,14.81,0,0,1-6.25,1.47,8.66,8.66,0,0,1-6.58-2.49,9.79,9.79,0,0,1-2.37-7c0-1.62,0-3.55,0-5.8s.05-3.87.05-4.88q0-2.78-.08-6.84c0-2.71-.07-4.23-.07-4.58h4.81c0,.26,0,1.73-.06,4.38s-.07,4.78-.07,6.37c0,1.4,0,3.14,0,5.23s0,3.58,0,4.45a9.56,9.56,0,0,0,1.24,5.27,4.39,4.39,0,0,0,3.84,1.67,14.66,14.66,0,0,0,6-1.46,30,30,0,0,0,4.77-2.56q0-.36,0-3.36t0-7.48q0-3.2-.08-7.65c-.05-3-.08-4.6-.08-4.86h4.81q0,.52-.06,3.42t-.06,9.92q0,3.92,0,6.89T710.93,674.14Z" transform="translate(-60.19 -261.38)" style="fill:none;stroke:#000;stroke-miterlimit:10"/><path d="M739.89,646.92a48.6,48.6,0,0,0-5.13,1.68q-3.46,1.27-8,3.41,0,.33,0,3.06t0,5.07q0,3.58.07,8.52c.05,3.29.08,5.12.08,5.48h-4.81c0-.34,0-1.48.06-3.41s.06-5.23.06-9.89q0-2.83,0-7.92t-.09-9.59h4.72V648l0,0a65.92,65.92,0,0,1,6.79-3.38,41,41,0,0,1,5.35-2Z" transform="translate(-60.19 -261.38)" style="fill:none;stroke:#000;stroke-miterlimit:10"/><path d="M779.28,633.4h-1.52a15.66,15.66,0,0,0-4.5.52,7.51,7.51,0,0,0-3,1.76,5.92,5.92,0,0,0-1.53,2.6,11.8,11.8,0,0,0-.54,3.68v1.37h10.35v3.56H768.23q0,9.87,0,18.32t0,8.93h-4.81q0-.48.06-8.57t.07-18.68h-6v-3.56h6v-1.49a15,15,0,0,1,.7-4.78,10.48,10.48,0,0,1,2.46-4,11.48,11.48,0,0,1,4.05-2.58,16.91,16.91,0,0,1,6.21-1h1.65Z" transform="translate(-60.19 -261.38)" style="fill:none;stroke:#000;stroke-miterlimit:10"/><path d="M802.36,646.92a50.16,50.16,0,0,0-5.13,1.68c-2.3.85-5,2-8,3.41q0,.33,0,3.06t0,5.07c0,2.39,0,5.23.08,8.52s.07,5.12.07,5.48h-4.81c0-.34,0-1.48.06-3.41s.06-5.23.06-9.89q0-2.83,0-7.92t-.09-9.59h4.72V648l0,0a66.94,66.94,0,0,1,6.79-3.38,41,41,0,0,1,5.36-2Z" transform="translate(-60.19 -261.38)" style="fill:none;stroke:#000;stroke-miterlimit:10"/><path d="M832.29,657.61h-22a13.32,13.32,0,0,0,1.37,5.92,11.09,11.09,0,0,0,4.11,4.46,13.48,13.48,0,0,0,4,1.69,22.35,22.35,0,0,0,5.42.56q1.72,0,3.18-.09l1.78-.12-.55,4.05c-.16,0-.7.06-1.61.11s-2,.07-3.23.07a25.75,25.75,0,0,1-8.48-1.26,16,16,0,0,1-5.92-3.49,15.74,15.74,0,0,1-3.37-4.75,14.73,14.73,0,0,1-1.38-6.42,18,18,0,0,1,1-6.27,16.92,16.92,0,0,1,3.11-5.21,12,12,0,0,1,4.46-3.19,13.92,13.92,0,0,1,5.53-1.13,13.76,13.76,0,0,1,5,.85,10.22,10.22,0,0,1,3.81,2.59,13.16,13.16,0,0,1,2.74,4.79A22.72,22.72,0,0,1,832.29,657.61Zm-4.72-3.41a10,10,0,0,0-2.57-5.92,7.32,7.32,0,0,0-5.5-2.15,7.93,7.93,0,0,0-5.69,2.18,11.63,11.63,0,0,0-3.17,5.89Z" transform="translate(-60.19 -261.38)" style="fill:none;stroke:#000;stroke-miterlimit:10"/><path d="M864.08,657.61h-22a13.45,13.45,0,0,0,1.37,5.92,11.24,11.24,0,0,0,4.11,4.46,13.71,13.71,0,0,0,4,1.69,22.4,22.4,0,0,0,5.42.56q1.74,0,3.18-.09l1.78-.12-.54,4.05c-.17,0-.7.06-1.62.11s-2,.07-3.23.07a25.69,25.69,0,0,1-8.47-1.26,16,16,0,0,1-5.93-3.49,15.55,15.55,0,0,1-3.36-4.75,14.73,14.73,0,0,1-1.39-6.42,18,18,0,0,1,1-6.27,17.09,17.09,0,0,1,3.1-5.21,12,12,0,0,1,4.47-3.19,14.59,14.59,0,0,1,10.54-.28,10.14,10.14,0,0,1,3.81,2.59,13,13,0,0,1,2.74,4.79A22.69,22.69,0,0,1,864.08,657.61Zm-4.72-3.41a10.1,10.1,0,0,0-2.58-5.92,7.31,7.31,0,0,0-5.49-2.15,8,8,0,0,0-5.7,2.18,11.61,11.61,0,0,0-3.16,5.89Z" transform="translate(-60.19 -261.38)" style="fill:none;stroke:#000;stroke-miterlimit:10"/><path d="M895.53,674.6h-1.16l-1.55,0a63.45,63.45,0,0,1-9-.5,22.58,22.58,0,0,1-6.36-2,14.65,14.65,0,0,1-6.15-5.17,12.86,12.86,0,0,1-2.1-7.17,14.61,14.61,0,0,1,2.34-8.2,15.6,15.6,0,0,1,6.76-5.58,24.37,24.37,0,0,1,5.94-1.84,35.47,35.47,0,0,1,6.58-.63l-.1-14h4.82c0,.4,0,3.24-.07,8.52s-.06,10.62-.06,16q0,6.42.05,11.61C895.48,669.13,895.5,672.1,895.53,674.6Zm-4.72-21.38v-5.63a30,30,0,0,0-5.74.52,19.9,19.9,0,0,0-4.62,1.4,10.72,10.72,0,0,0-4.71,4,11,11,0,0,0-1.68,6.09,9,9,0,0,0,1.61,5.38,11.63,11.63,0,0,0,4,3.53,18.05,18.05,0,0,0,4.74,1.69,26.7,26.7,0,0,0,5.52.56h.8c0-.18,0-1.7,0-4.54S890.81,659,890.81,653.22Z" transform="translate(-60.19 -261.38)" style="fill:none;stroke:#000;stroke-miterlimit:10"/><path d="M933.73,658.74a18.38,18.38,0,0,1-1.26,6.75,15,15,0,0,1-3.64,5.51,14.31,14.31,0,0,1-4.46,2.93,14.54,14.54,0,0,1-5.56,1,15.1,15.1,0,0,1-5.48-1,13.88,13.88,0,0,1-4.56-2.9,15,15,0,0,1-3.58-5.49,18.88,18.88,0,0,1-1.26-6.88,18.46,18.46,0,0,1,1.08-6.43,15,15,0,0,1,3.36-5.29,14,14,0,0,1,4.75-3.27,14.65,14.65,0,0,1,5.73-1.14,15,15,0,0,1,5.73,1.05,13.19,13.19,0,0,1,4.59,3.15,15.67,15.67,0,0,1,3.44,5.4A18.66,18.66,0,0,1,933.73,658.74Zm-4.87.21a17,17,0,0,0-.93-5.57,11.31,11.31,0,0,0-2.87-4.57,8.31,8.31,0,0,0-2.82-1.78,9.34,9.34,0,0,0-3.39-.62,9.16,9.16,0,0,0-3.66.67,8.84,8.84,0,0,0-2.92,2.1,11.35,11.35,0,0,0-2.54,4.2,15.35,15.35,0,0,0-.93,5.29,16.56,16.56,0,0,0,.94,5.71,10.94,10.94,0,0,0,3,4.49,8.14,8.14,0,0,0,2.74,1.63,9.43,9.43,0,0,0,3.28.57,9.58,9.58,0,0,0,3.58-.67,8.47,8.47,0,0,0,2.91-1.95,11.73,11.73,0,0,0,2.65-4.27A15,15,0,0,0,928.86,659Z" transform="translate(-60.19 -261.38)" style="fill:none;stroke:#000;stroke-miterlimit:10"/><path d="M985.8,674.14H981c0-.22,0-1.64.07-4.26s.05-5.09.05-7.4c0-.91,0-2.41,0-4.49s0-3.64,0-4.67c-.06-2.44-.55-4.12-1.45-5.06a5.6,5.6,0,0,0-4.19-1.4,12.09,12.09,0,0,0-4,.83,29.56,29.56,0,0,0-5.19,2.58c0,.1,0,.31,0,.61s0,.7,0,1.19c0,1.64,0,3.31,0,5s0,3.31,0,4.85q0,5,.07,8.48c.06,2.29.08,3.54.08,3.74h-4.81c0-.22,0-1.45.06-3.68s.06-4.87.06-7.92c0-1,0-2.55,0-4.61s0-3.58,0-4.55a17.25,17.25,0,0,0-.24-2.56,5.33,5.33,0,0,0-.79-2.07,4.11,4.11,0,0,0-1.65-1.42,7,7,0,0,0-2.86-.47,10.17,10.17,0,0,0-4,1,38.61,38.61,0,0,0-5.23,2.87c0,.34,0,1.64,0,3.88s0,4.06,0,5.48q0,3.63.08,8.68c0,3.38.08,5.17.08,5.37h-4.81c0-.16,0-1.34.06-3.55s.06-5.85.06-10.94q0-2.5,0-6.73t-.1-9.59h4.75l0,3.5,0,0A31.89,31.89,0,0,1,952,644a13.35,13.35,0,0,1,5.46-1.43,9.24,9.24,0,0,1,5,1.25,7.13,7.13,0,0,1,2.85,3.16h.06a38.87,38.87,0,0,1,6.44-3.28,14.19,14.19,0,0,1,5-1.13,8.71,8.71,0,0,1,6.57,2.45,9.14,9.14,0,0,1,2.35,6.62c0,2.15,0,4,0,5.44s-.05,3-.05,4.67q0,5.12.08,8.65C985.77,672.72,985.8,674,985.8,674.14Z" transform="translate(-60.19 -261.38)" style="fill:none;stroke:#000;stroke-miterlimit:10"/></svg>