<svg id="Capa_1" enable-background="new 0 0 512 512" height="512" viewBox="0 0 512 512" width="512" xmlns="http://www.w3.org/2000/svg"><g><path d="m255.999 367.759c44.807-63.704 75.36-109.172 86.648-128.983 8.474-14.873 12.952-31.878 12.952-49.177 0-54.919-44.68-99.599-99.6-99.599-54.919 0-99.599 44.68-99.599 99.599 0 17.298 4.479 34.303 12.952 49.177 11.285 19.806 41.839 65.275 86.647 128.983zm21.067-218.759h30v30h-30zm-72.132 0h30v30h-30zm15.587 53.766c6.402 13.749 20.329 22.633 35.479 22.633s29.077-8.884 35.48-22.633l27.195 12.664c-11.306 24.281-35.907 39.97-62.675 39.97-26.767 0-51.368-15.689-62.674-39.97z"/><path d="m445.599 189.599c0-104.545-85.054-189.599-189.6-189.599-104.544 0-189.598 85.054-189.598 189.599 0 32.894 8.56 65.305 24.753 93.729 23.57 41.371 100.783 150.114 135.579 198.672h-88.066v30h234.667v-30h-88.067c34.796-48.558 112.01-157.301 135.58-198.672 16.192-28.424 24.752-60.835 24.752-93.729zm-189.6-129.599c71.462 0 129.6 58.138 129.6 129.599 0 22.497-5.839 44.637-16.886 64.027-16.349 28.696-63.658 96.767-100.467 148.819h-24.494c-36.811-52.056-84.121-120.13-100.466-148.818-11.047-19.391-16.886-41.531-16.886-64.028.001-71.461 58.139-129.599 129.599-129.599z"/></g></svg>